<?xml version="1.0" standalone="no"?>
<!DOCTYPE svg PUBLIC "-//W3C//DTD SVG 20010904//EN"
 "http://www.w3.org/TR/2001/REC-SVG-20010904/DTD/svg10.dtd">
<svg version="1.0" xmlns="http://www.w3.org/2000/svg"
 width="700.000000pt" height="700.000000pt" viewBox="0 0 700.000000 700.000000"
 preserveAspectRatio="xMidYMid meet">
<metadata>
Created by potrace 1.14, written by Peter Selinger 2001-2017
</metadata>
<g transform="translate(0.000000,700.000000) scale(0.100000,-0.100000)"
fill="#000000" stroke="none">
<path d="M3318 6795 c-2 -1 -50 -6 -108 -10 -58 -4 -107 -8 -110 -10 -3 -2
-27 -5 -55 -9 -81 -8 -262 -45 -385 -77 -350 -92 -681 -240 -985 -443 -83 -55
-235 -166 -261 -191 -6 -5 -33 -28 -60 -50 -94 -77 -330 -321 -425 -440 -413
-517 -664 -1142 -716 -1785 -14 -167 -7 -558 11 -670 3 -14 7 -44 10 -68 34
-265 129 -606 236 -847 43 -97 132 -275 165 -329 19 -32 35 -62 35 -66 0 -4
-18 -38 -40 -76 -42 -75 -83 -186 -98 -274 -15 -79 -12 -242 5 -319 17 -74 67
-202 95 -243 10 -14 18 -29 18 -33 0 -10 75 -101 120 -146 97 -98 224 -173
365 -214 75 -23 111 -27 215 -28 138 -1 151 1 260 33 80 24 161 62 225 105 34
24 42 26 60 14 47 -30 297 -149 380 -182 88 -34 295 -106 325 -112 8 -2 71
-17 140 -33 69 -17 145 -33 170 -37 25 -4 54 -9 65 -11 11 -2 40 -6 65 -9 25
-3 54 -8 66 -10 86 -18 518 -26 669 -12 156 15 169 16 415 61 161 29 461 126
633 205 l69 31 36 -28 c242 -191 555 -242 832 -137 67 26 176 86 219 120 325
264 420 678 240 1049 -16 33 -29 63 -29 67 0 5 33 59 74 121 74 114 83 129
159 273 183 345 280 655 351 1125 26 171 27 671 1 795 -2 11 -7 40 -10 65 -3
25 -9 70 -15 100 -5 30 -11 67 -14 82 -9 53 -48 213 -59 242 -9 24 -8 31 9 43
47 34 139 134 180 195 55 84 89 161 115 258 28 106 26 340 -3 437 -53 176
-145 316 -283 429 -225 185 -528 239 -805 144 l-85 -29 -30 28 c-326 302 -658
515 -1050 674 -148 60 -353 124 -488 153 -58 13 -166 33 -202 38 -23 4 -50 8
-60 10 -11 2 -47 7 -80 10 -33 4 -73 9 -90 12 -34 5 -482 13 -487 9z"/>
</g>
</svg>
